<?xml version="1.0" encoding="UTF-8" standalone="no"?>
<!DOCTYPE svg PUBLIC "-//W3C//DTD SVG 1.1//EN"
 "http://www.w3.org/Graphics/SVG/1.1/DTD/svg11.dtd">
<!-- Generated by graphviz version 2.36.0 (20140111.2315)
 -->
<!-- Title: controllers_diagram Pages: 1 -->
<svg width="606pt" height="558pt"
 viewBox="0.00 0.00 606.00 558.00" xmlns="http://www.w3.org/2000/svg" xmlns:xlink="http://www.w3.org/1999/xlink">
<g id="graph0" class="graph" transform="scale(1 1) rotate(0) translate(4 554)">
<title>controllers_diagram</title>
<polygon fill="white" stroke="none" points="-4,4 -4,-554 602,-554 602,4 -4,4"/>
<!-- _diagram_info -->
<g id="node1" class="node"><title>_diagram_info</title>
<text text-anchor="start" x="392" y="-431.6" font-family="Times,serif" font-size="13.00">Controllers diagram</text>
<text text-anchor="start" x="392" y="-417.6" font-family="Times,serif" font-size="13.00">Date: Nov 20 2014 &#45; 15:10</text>
<text text-anchor="start" x="392" y="-403.6" font-family="Times,serif" font-size="13.00">Migration version: 20141113132334</text>
<text text-anchor="start" x="392" y="-389.6" font-family="Times,serif" font-size="13.00">Generated by RailRoady 1.2.0</text>
<text text-anchor="start" x="392" y="-375.6" font-family="Times,serif" font-size="13.00">http://railroady.prestonlee.com</text>
</g>
<!-- StudentsController -->
<g id="node2" class="node"><title>StudentsController</title>
<path fill="none" stroke="black" d="M316,-128.5C316,-128.5 411,-128.5 411,-128.5 417,-128.5 423,-134.5 423,-140.5 423,-140.5 423,-329.5 423,-329.5 423,-335.5 417,-341.5 411,-341.5 411,-341.5 316,-341.5 316,-341.5 310,-341.5 304,-335.5 304,-329.5 304,-329.5 304,-140.5 304,-140.5 304,-134.5 310,-128.5 316,-128.5"/>
<text text-anchor="middle" x="363.5" y="-326.3" font-family="Times,serif" font-size="14.00">StudentsController</text>
<polyline fill="none" stroke="black" points="304,-318.5 423,-318.5 "/>
<text text-anchor="start" x="312" y="-303.3" font-family="Times,serif" font-size="14.00">create</text>
<text text-anchor="start" x="312" y="-288.3" font-family="Times,serif" font-size="14.00">destroy</text>
<text text-anchor="start" x="312" y="-273.3" font-family="Times,serif" font-size="14.00">edit</text>
<text text-anchor="start" x="312" y="-258.3" font-family="Times,serif" font-size="14.00">index</text>
<text text-anchor="start" x="312" y="-243.3" font-family="Times,serif" font-size="14.00">new</text>
<text text-anchor="start" x="312" y="-228.3" font-family="Times,serif" font-size="14.00">show</text>
<text text-anchor="start" x="312" y="-213.3" font-family="Times,serif" font-size="14.00">update</text>
<polyline fill="none" stroke="black" points="304,-205.5 423,-205.5 "/>
<polyline fill="none" stroke="black" points="304,-181.5 423,-181.5 "/>
<text text-anchor="start" x="312" y="-166.3" font-family="Times,serif" font-size="14.00">_layout</text>
<text text-anchor="start" x="312" y="-151.3" font-family="Times,serif" font-size="14.00">set_student</text>
<text text-anchor="start" x="312" y="-136.3" font-family="Times,serif" font-size="14.00">student_params</text>
</g>
<!-- StartpointsController -->
<g id="node3" class="node"><title>StartpointsController</title>
<path fill="none" stroke="black" d="M156,-96.5C156,-96.5 263,-96.5 263,-96.5 269,-96.5 275,-102.5 275,-108.5 275,-108.5 275,-297.5 275,-297.5 275,-303.5 269,-309.5 263,-309.5 263,-309.5 156,-309.5 156,-309.5 150,-309.5 144,-303.5 144,-297.5 144,-297.5 144,-108.5 144,-108.5 144,-102.5 150,-96.5 156,-96.5"/>
<text text-anchor="middle" x="209.5" y="-294.3" font-family="Times,serif" font-size="14.00">StartpointsController</text>
<polyline fill="none" stroke="black" points="144,-286.5 275,-286.5 "/>
<text text-anchor="start" x="152" y="-271.3" font-family="Times,serif" font-size="14.00">create</text>
<text text-anchor="start" x="152" y="-256.3" font-family="Times,serif" font-size="14.00">destroy</text>
<text text-anchor="start" x="152" y="-241.3" font-family="Times,serif" font-size="14.00">edit</text>
<text text-anchor="start" x="152" y="-226.3" font-family="Times,serif" font-size="14.00">index</text>
<text text-anchor="start" x="152" y="-211.3" font-family="Times,serif" font-size="14.00">new</text>
<text text-anchor="start" x="152" y="-196.3" font-family="Times,serif" font-size="14.00">show</text>
<text text-anchor="start" x="152" y="-181.3" font-family="Times,serif" font-size="14.00">update</text>
<polyline fill="none" stroke="black" points="144,-173.5 275,-173.5 "/>
<polyline fill="none" stroke="black" points="144,-149.5 275,-149.5 "/>
<text text-anchor="start" x="152" y="-134.3" font-family="Times,serif" font-size="14.00">_layout</text>
<text text-anchor="start" x="152" y="-119.3" font-family="Times,serif" font-size="14.00">set_startpoint</text>
<text text-anchor="start" x="152" y="-104.3" font-family="Times,serif" font-size="14.00">startpoint_params</text>
</g>
<!-- RoutesController -->
<g id="node4" class="node"><title>RoutesController</title>
<path fill="none" stroke="black" d="M172,-336.5C172,-336.5 258,-336.5 258,-336.5 264,-336.5 270,-342.5 270,-348.5 270,-348.5 270,-537.5 270,-537.5 270,-543.5 264,-549.5 258,-549.5 258,-549.5 172,-549.5 172,-549.5 166,-549.5 160,-543.5 160,-537.5 160,-537.5 160,-348.5 160,-348.5 160,-342.5 166,-336.5 172,-336.5"/>
<text text-anchor="middle" x="215" y="-534.3" font-family="Times,serif" font-size="14.00">RoutesController</text>
<polyline fill="none" stroke="black" points="160,-526.5 270,-526.5 "/>
<text text-anchor="start" x="168" y="-511.3" font-family="Times,serif" font-size="14.00">create</text>
<text text-anchor="start" x="168" y="-496.3" font-family="Times,serif" font-size="14.00">destroy</text>
<text text-anchor="start" x="168" y="-481.3" font-family="Times,serif" font-size="14.00">edit</text>
<text text-anchor="start" x="168" y="-466.3" font-family="Times,serif" font-size="14.00">index</text>
<text text-anchor="start" x="168" y="-451.3" font-family="Times,serif" font-size="14.00">new</text>
<text text-anchor="start" x="168" y="-436.3" font-family="Times,serif" font-size="14.00">show</text>
<text text-anchor="start" x="168" y="-421.3" font-family="Times,serif" font-size="14.00">update</text>
<polyline fill="none" stroke="black" points="160,-413.5 270,-413.5 "/>
<polyline fill="none" stroke="black" points="160,-389.5 270,-389.5 "/>
<text text-anchor="start" x="168" y="-374.3" font-family="Times,serif" font-size="14.00">_layout</text>
<text text-anchor="start" x="168" y="-359.3" font-family="Times,serif" font-size="14.00">route_params</text>
<text text-anchor="start" x="168" y="-344.3" font-family="Times,serif" font-size="14.00">set_route</text>
</g>
<!-- ApplicationController -->
<g id="node5" class="node"><title>ApplicationController</title>
<path fill="none" stroke="black" d="M316,-0.5C316,-0.5 428,-0.5 428,-0.5 434,-0.5 440,-6.5 440,-12.5 440,-12.5 440,-82.5 440,-82.5 440,-88.5 434,-94.5 428,-94.5 428,-94.5 316,-94.5 316,-94.5 310,-94.5 304,-88.5 304,-82.5 304,-82.5 304,-12.5 304,-12.5 304,-6.5 310,-0.5 316,-0.5"/>
<text text-anchor="middle" x="372" y="-79.3" font-family="Times,serif" font-size="14.00">ApplicationController</text>
<polyline fill="none" stroke="black" points="304,-71.5 440,-71.5 "/>
<polyline fill="none" stroke="black" points="304,-47.5 440,-47.5 "/>
<polyline fill="none" stroke="black" points="304,-23.5 440,-23.5 "/>
<text text-anchor="start" x="312" y="-8.3" font-family="Times,serif" font-size="14.00">_layout</text>
</g>
<!-- MapController -->
<g id="node6" class="node"><title>MapController</title>
<path fill="none" stroke="black" d="M28,-304.5C28,-304.5 102,-304.5 102,-304.5 108,-304.5 114,-310.5 114,-316.5 114,-316.5 114,-385.5 114,-385.5 114,-391.5 108,-397.5 102,-397.5 102,-397.5 28,-397.5 28,-397.5 22,-397.5 16,-391.5 16,-385.5 16,-385.5 16,-316.5 16,-316.5 16,-310.5 22,-304.5 28,-304.5"/>
<text text-anchor="middle" x="65" y="-382.3" font-family="Times,serif" font-size="14.00">MapController</text>
<polyline fill="none" stroke="black" points="16,-374.5 114,-374.5 "/>
<text text-anchor="start" x="24" y="-359.3" font-family="Times,serif" font-size="14.00">index</text>
<polyline fill="none" stroke="black" points="16,-351.5 114,-351.5 "/>
<polyline fill="none" stroke="black" points="16,-327.5 114,-327.5 "/>
<text text-anchor="start" x="24" y="-312.3" font-family="Times,serif" font-size="14.00">_layout</text>
</g>
<!-- WelcomeController -->
<g id="node7" class="node"><title>WelcomeController</title>
<path fill="none" stroke="black" d="M460,-128.5C460,-128.5 561,-128.5 561,-128.5 567,-128.5 573,-134.5 573,-140.5 573,-140.5 573,-209.5 573,-209.5 573,-215.5 567,-221.5 561,-221.5 561,-221.5 460,-221.5 460,-221.5 454,-221.5 448,-215.5 448,-209.5 448,-209.5 448,-140.5 448,-140.5 448,-134.5 454,-128.5 460,-128.5"/>
<text text-anchor="middle" x="510.5" y="-206.3" font-family="Times,serif" font-size="14.00">WelcomeController</text>
<polyline fill="none" stroke="black" points="448,-198.5 573,-198.5 "/>
<text text-anchor="start" x="456" y="-183.3" font-family="Times,serif" font-size="14.00">index</text>
<polyline fill="none" stroke="black" points="448,-175.5 573,-175.5 "/>
<polyline fill="none" stroke="black" points="448,-151.5 573,-151.5 "/>
<text text-anchor="start" x="456" y="-136.3" font-family="Times,serif" font-size="14.00">_layout</text>
</g>
<!-- TspController -->
<g id="node8" class="node"><title>TspController</title>
<path fill="none" stroke="black" d="M12,-432.5C12,-432.5 114,-432.5 114,-432.5 120,-432.5 126,-438.5 126,-444.5 126,-444.5 126,-513.5 126,-513.5 126,-519.5 120,-525.5 114,-525.5 114,-525.5 12,-525.5 12,-525.5 6,-525.5 -2.84217e-14,-519.5 -2.84217e-14,-513.5 -2.84217e-14,-513.5 -2.84217e-14,-444.5 -2.84217e-14,-444.5 -2.84217e-14,-438.5 6,-432.5 12,-432.5"/>
<text text-anchor="middle" x="63" y="-510.3" font-family="Times,serif" font-size="14.00">TspController</text>
<polyline fill="none" stroke="black" points="-2.84217e-14,-502.5 126,-502.5 "/>
<text text-anchor="start" x="8" y="-487.3" font-family="Times,serif" font-size="14.00">generate_new_route</text>
<polyline fill="none" stroke="black" points="-2.84217e-14,-479.5 126,-479.5 "/>
<polyline fill="none" stroke="black" points="-2.84217e-14,-455.5 126,-455.5 "/>
<text text-anchor="start" x="8" y="-440.3" font-family="Times,serif" font-size="14.00">_layout</text>
</g>
</g>
</svg>
