<?xml version="1.0" encoding="UTF-8" standalone="no"?>
<!DOCTYPE svg PUBLIC "-//W3C//DTD SVG 1.1//EN"
 "http://www.w3.org/Graphics/SVG/1.1/DTD/svg11.dtd">
<!-- Generated by graphviz version 2.36.0 (20140111.2315)
 -->
<!-- Title: models_diagram Pages: 1 -->
<svg width="656pt" height="230pt"
 viewBox="0.00 0.00 656.00 230.00" xmlns="http://www.w3.org/2000/svg" xmlns:xlink="http://www.w3.org/1999/xlink">
<g id="graph0" class="graph" transform="scale(1 1) rotate(0) translate(4 226)">
<title>models_diagram</title>
<polygon fill="white" stroke="none" points="-4,4 -4,-226 652,-226 652,4 -4,4"/>
<!-- _diagram_info -->
<g id="node1" class="node"><title>_diagram_info</title>
<text text-anchor="start" x="7" y="-207.6" font-family="Times,serif" font-size="13.00">Models diagram</text>
<text text-anchor="start" x="7" y="-193.6" font-family="Times,serif" font-size="13.00">Date: Nov 20 2014 &#45; 15:10</text>
<text text-anchor="start" x="7" y="-179.6" font-family="Times,serif" font-size="13.00">Migration version: 20141113132334</text>
<text text-anchor="start" x="7" y="-165.6" font-family="Times,serif" font-size="13.00">Generated by RailRoady 1.2.0</text>
<text text-anchor="start" x="7" y="-151.6" font-family="Times,serif" font-size="13.00">http://railroady.prestonlee.com</text>
</g>
<!-- School -->
<g id="node2" class="node"><title>School</title>
<ellipse fill="none" stroke="black" cx="225" cy="-90" rx="35.1455" ry="18"/>
<text text-anchor="middle" x="225" y="-86.3" font-family="Times,serif" font-size="14.00">School</text>
</g>
<!-- Turn -->
<g id="node7" class="node"><title>Turn</title>
<ellipse fill="none" stroke="black" cx="225" cy="-18" rx="27.4223" ry="18"/>
<text text-anchor="middle" x="225" y="-14.3" font-family="Times,serif" font-size="14.00">Turn</text>
</g>
<!-- School&#45;&gt;Turn -->
<g id="edge1" class="edge"><title>School&#45;&gt;Turn</title>
<path fill="none" stroke="#de1e6c" d="M225,-63.6398C225,-58.0629 225,-52.1319 225,-46.4761"/>
<ellipse fill="none" stroke="#de1e6c" cx="225" cy="-67.6966" rx="4" ry="4"/>
<polygon fill="#de1e6c" stroke="#de1e6c" points="225,-46.1043 229.5,-36.1043 225,-41.1043 225,-36.1043 225,-36.1043 225,-36.1043 225,-41.1043 220.5,-36.1044 225,-46.1043 225,-46.1043"/>
</g>
<!-- Address -->
<g id="node3" class="node"><title>Address</title>
<ellipse fill="none" stroke="black" cx="271" cy="-183" rx="39.4691" ry="18"/>
<text text-anchor="middle" x="271" y="-179.3" font-family="Times,serif" font-size="14.00">Address</text>
</g>
<!-- Address&#45;&gt;School -->
<g id="edge3" class="edge"><title>Address&#45;&gt;School</title>
<path fill="none" stroke="#38ea7d" d="M258.83,-157.925C252.122,-144.654 243.82,-128.231 237.12,-114.976"/>
<ellipse fill="none" stroke="#38ea7d" cx="260.758" cy="-161.739" rx="4.00002" ry="4.00002"/>
<ellipse fill="#38ea7d" stroke="#38ea7d" cx="235.188" cy="-111.155" rx="4.00002" ry="4.00002"/>
</g>
<!-- Student -->
<g id="node5" class="node"><title>Student</title>
<ellipse fill="none" stroke="black" cx="316" cy="-90" rx="37.5442" ry="18"/>
<text text-anchor="middle" x="316" y="-86.3" font-family="Times,serif" font-size="14.00">Student</text>
</g>
<!-- Address&#45;&gt;Student -->
<g id="edge2" class="edge"><title>Address&#45;&gt;Student</title>
<path fill="none" stroke="#5d9b05" d="M282.905,-157.925C289.468,-144.654 297.589,-128.231 304.144,-114.976"/>
<ellipse fill="none" stroke="#5d9b05" cx="281.027" cy="-161.724" rx="4.00002" ry="4.00002"/>
<ellipse fill="#5d9b05" stroke="#5d9b05" cx="306.026" cy="-111.171" rx="4.00002" ry="4.00002"/>
</g>
<!-- AntTsp -->
<g id="node4" class="node"><title>AntTsp</title>
<polygon fill="none" stroke="black" points="385.25,-201 328.75,-201 328.75,-165 385.25,-165 385.25,-201"/>
<text text-anchor="middle" x="357" y="-179.3" font-family="Times,serif" font-size="14.00">AntTsp</text>
</g>
<!-- Ant -->
<g id="node6" class="node"><title>Ant</title>
<polygon fill="none" stroke="black" points="458,-201 404,-201 404,-165 458,-165 458,-201"/>
<text text-anchor="middle" x="431" y="-179.3" font-family="Times,serif" font-size="14.00">Ant</text>
</g>
<!-- Route -->
<g id="node8" class="node"><title>Route</title>
<ellipse fill="none" stroke="black" cx="508" cy="-183" rx="31.2735" ry="18"/>
<text text-anchor="middle" x="508" y="-179.3" font-family="Times,serif" font-size="14.00">Route</text>
</g>
<!-- Startpoint -->
<g id="node9" class="node"><title>Startpoint</title>
<ellipse fill="none" stroke="black" cx="603" cy="-183" rx="45.244" ry="18"/>
<text text-anchor="middle" x="603" y="-179.3" font-family="Times,serif" font-size="14.00">Startpoint</text>
</g>
</g>
</svg>
