<?xml version="1.0" encoding="UTF-8" standalone="no"?>
<!DOCTYPE svg PUBLIC "-//W3C//DTD SVG 1.1//EN"
 "http://www.w3.org/Graphics/SVG/1.1/DTD/svg11.dtd">
<!-- Generated by graphviz version 2.36.0 (20140111.2315)
 -->
<!-- Title: models_diagram Pages: 1 -->
<svg width="816pt" height="478pt"
 viewBox="0.00 0.00 816.00 478.00" xmlns="http://www.w3.org/2000/svg" xmlns:xlink="http://www.w3.org/1999/xlink">
<g id="graph0" class="graph" transform="scale(1 1) rotate(0) translate(4 474)">
<title>models_diagram</title>
<polygon fill="white" stroke="none" points="-4,4 -4,-474 812,-474 812,4 -4,4"/>
<!-- _diagram_info -->
<g id="node1" class="node"><title>_diagram_info</title>
<text text-anchor="start" x="7" y="-425.6" font-family="Times,serif" font-size="13.00">Models diagram</text>
<text text-anchor="start" x="7" y="-411.6" font-family="Times,serif" font-size="13.00">Date: Nov 20 2014 &#45; 15:10</text>
<text text-anchor="start" x="7" y="-397.6" font-family="Times,serif" font-size="13.00">Migration version: 20141113132334</text>
<text text-anchor="start" x="7" y="-383.6" font-family="Times,serif" font-size="13.00">Generated by RailRoady 1.2.0</text>
<text text-anchor="start" x="7" y="-369.6" font-family="Times,serif" font-size="13.00">http://railroady.prestonlee.com</text>
</g>
<!-- School -->
<g id="node2" class="node"><title>School</title>
<path fill="none" stroke="black" d="M168.5,-174C168.5,-174 275.5,-174 275.5,-174 281.5,-174 287.5,-180 287.5,-186 287.5,-186 287.5,-268 287.5,-268 287.5,-274 281.5,-280 275.5,-280 275.5,-280 168.5,-280 168.5,-280 162.5,-280 156.5,-274 156.5,-268 156.5,-268 156.5,-186 156.5,-186 156.5,-180 162.5,-174 168.5,-174"/>
<text text-anchor="middle" x="222" y="-264.8" font-family="Times,serif" font-size="14.00">School</text>
<polyline fill="none" stroke="black" points="156.5,-257 287.5,-257 "/>
<text text-anchor="start" x="164.5" y="-241.8" font-family="Times,serif" font-size="14.00">id :integer</text>
<text text-anchor="start" x="164.5" y="-226.8" font-family="Times,serif" font-size="14.00">name :string</text>
<text text-anchor="start" x="164.5" y="-211.8" font-family="Times,serif" font-size="14.00">address_id :integer</text>
<text text-anchor="start" x="164.5" y="-196.8" font-family="Times,serif" font-size="14.00">created_at :datetime</text>
<text text-anchor="start" x="164.5" y="-181.8" font-family="Times,serif" font-size="14.00">updated_at :datetime</text>
</g>
<!-- Turn -->
<g id="node7" class="node"><title>Turn</title>
<path fill="none" stroke="black" d="M168.5,-0.5C168.5,-0.5 275.5,-0.5 275.5,-0.5 281.5,-0.5 287.5,-6.5 287.5,-12.5 287.5,-12.5 287.5,-109.5 287.5,-109.5 287.5,-115.5 281.5,-121.5 275.5,-121.5 275.5,-121.5 168.5,-121.5 168.5,-121.5 162.5,-121.5 156.5,-115.5 156.5,-109.5 156.5,-109.5 156.5,-12.5 156.5,-12.5 156.5,-6.5 162.5,-0.5 168.5,-0.5"/>
<text text-anchor="middle" x="222" y="-106.3" font-family="Times,serif" font-size="14.00">Turn</text>
<polyline fill="none" stroke="black" points="156.5,-98.5 287.5,-98.5 "/>
<text text-anchor="start" x="164.5" y="-83.3" font-family="Times,serif" font-size="14.00">id :integer</text>
<text text-anchor="start" x="164.5" y="-68.3" font-family="Times,serif" font-size="14.00">school_id :integer</text>
<text text-anchor="start" x="164.5" y="-53.3" font-family="Times,serif" font-size="14.00">arrival :string</text>
<text text-anchor="start" x="164.5" y="-38.3" font-family="Times,serif" font-size="14.00">departure :string</text>
<text text-anchor="start" x="164.5" y="-23.3" font-family="Times,serif" font-size="14.00">created_at :datetime</text>
<text text-anchor="start" x="164.5" y="-8.3" font-family="Times,serif" font-size="14.00">updated_at :datetime</text>
</g>
<!-- School&#45;&gt;Turn -->
<g id="edge1" class="edge"><title>School&#45;&gt;Turn</title>
<path fill="none" stroke="#0a8510" d="M222,-165.355C222,-154.399 222,-142.896 222,-131.706"/>
<ellipse fill="none" stroke="#0a8510" cx="222" cy="-169.658" rx="4" ry="4"/>
<polygon fill="#0a8510" stroke="#0a8510" points="222,-131.542 226.5,-121.542 222,-126.542 222,-121.542 222,-121.542 222,-121.542 222,-126.542 217.5,-121.542 222,-131.542 222,-131.542"/>
</g>
<!-- Address -->
<g id="node3" class="node"><title>Address</title>
<path fill="none" stroke="black" d="M243.5,-333C243.5,-333 350.5,-333 350.5,-333 356.5,-333 362.5,-339 362.5,-345 362.5,-345 362.5,-457 362.5,-457 362.5,-463 356.5,-469 350.5,-469 350.5,-469 243.5,-469 243.5,-469 237.5,-469 231.5,-463 231.5,-457 231.5,-457 231.5,-345 231.5,-345 231.5,-339 237.5,-333 243.5,-333"/>
<text text-anchor="middle" x="297" y="-453.8" font-family="Times,serif" font-size="14.00">Address</text>
<polyline fill="none" stroke="black" points="231.5,-446 362.5,-446 "/>
<text text-anchor="start" x="239.5" y="-430.8" font-family="Times,serif" font-size="14.00">id :integer</text>
<text text-anchor="start" x="239.5" y="-415.8" font-family="Times,serif" font-size="14.00">latitude :float</text>
<text text-anchor="start" x="239.5" y="-400.8" font-family="Times,serif" font-size="14.00">longitude :float</text>
<text text-anchor="start" x="239.5" y="-385.8" font-family="Times,serif" font-size="14.00">created_at :datetime</text>
<text text-anchor="start" x="239.5" y="-370.8" font-family="Times,serif" font-size="14.00">updated_at :datetime</text>
<text text-anchor="start" x="239.5" y="-355.8" font-family="Times,serif" font-size="14.00">address :string</text>
<text text-anchor="start" x="239.5" y="-340.8" font-family="Times,serif" font-size="14.00">description :string</text>
</g>
<!-- Address&#45;&gt;School -->
<g id="edge3" class="edge"><title>Address&#45;&gt;School</title>
<path fill="none" stroke="#556a7b" d="M264.347,-325.115C258.869,-312.554 253.252,-299.671 247.972,-287.563"/>
<ellipse fill="none" stroke="#556a7b" cx="265.974" cy="-328.848" rx="4.00002" ry="4.00002"/>
<ellipse fill="#556a7b" stroke="#556a7b" cx="246.332" cy="-283.8" rx="4.00002" ry="4.00002"/>
</g>
<!-- Student -->
<g id="node5" class="node"><title>Student</title>
<path fill="none" stroke="black" d="M317.5,-159C317.5,-159 424.5,-159 424.5,-159 430.5,-159 436.5,-165 436.5,-171 436.5,-171 436.5,-283 436.5,-283 436.5,-289 430.5,-295 424.5,-295 424.5,-295 317.5,-295 317.5,-295 311.5,-295 305.5,-289 305.5,-283 305.5,-283 305.5,-171 305.5,-171 305.5,-165 311.5,-159 317.5,-159"/>
<text text-anchor="middle" x="371" y="-279.8" font-family="Times,serif" font-size="14.00">Student</text>
<polyline fill="none" stroke="black" points="305.5,-272 436.5,-272 "/>
<text text-anchor="start" x="313.5" y="-256.8" font-family="Times,serif" font-size="14.00">id :integer</text>
<text text-anchor="start" x="313.5" y="-241.8" font-family="Times,serif" font-size="14.00">name :string</text>
<text text-anchor="start" x="313.5" y="-226.8" font-family="Times,serif" font-size="14.00">address_id :integer</text>
<text text-anchor="start" x="313.5" y="-211.8" font-family="Times,serif" font-size="14.00">school_id :integer</text>
<text text-anchor="start" x="313.5" y="-196.8" font-family="Times,serif" font-size="14.00">created_at :datetime</text>
<text text-anchor="start" x="313.5" y="-181.8" font-family="Times,serif" font-size="14.00">updated_at :datetime</text>
<text text-anchor="start" x="313.5" y="-166.8" font-family="Times,serif" font-size="14.00">turn :integer</text>
</g>
<!-- Address&#45;&gt;Student -->
<g id="edge2" class="edge"><title>Address&#45;&gt;Student</title>
<path fill="none" stroke="#574368" d="M329.291,-324.945C332.506,-317.473 335.768,-309.89 338.98,-302.425"/>
<ellipse fill="none" stroke="#574368" cx="327.615" cy="-328.84" rx="4.00002" ry="4.00002"/>
<ellipse fill="#574368" stroke="#574368" cx="340.59" cy="-298.683" rx="4.00002" ry="4.00002"/>
</g>
<!-- AntTsp -->
<g id="node4" class="node"><title>AntTsp</title>
<polygon fill="none" stroke="black" points="380.5,-378 380.5,-424 437.5,-424 437.5,-378 380.5,-378"/>
<text text-anchor="middle" x="409" y="-408.8" font-family="Times,serif" font-size="14.00">AntTsp</text>
<polyline fill="none" stroke="black" points="380.5,-401 437.5,-401 "/>
<text text-anchor="middle" x="409" y="-385.8" font-family="Times,serif" font-size="14.00"> </text>
</g>
<!-- Ant -->
<g id="node6" class="node"><title>Ant</title>
<polygon fill="none" stroke="black" points="456,-378 456,-424 510,-424 510,-378 456,-378"/>
<text text-anchor="middle" x="483" y="-408.8" font-family="Times,serif" font-size="14.00">Ant</text>
<polyline fill="none" stroke="black" points="456,-401 510,-401 "/>
<text text-anchor="middle" x="483" y="-385.8" font-family="Times,serif" font-size="14.00"> </text>
</g>
<!-- Route -->
<g id="node8" class="node"><title>Route</title>
<path fill="none" stroke="black" d="M540.5,-348C540.5,-348 647.5,-348 647.5,-348 653.5,-348 659.5,-354 659.5,-360 659.5,-360 659.5,-442 659.5,-442 659.5,-448 653.5,-454 647.5,-454 647.5,-454 540.5,-454 540.5,-454 534.5,-454 528.5,-448 528.5,-442 528.5,-442 528.5,-360 528.5,-360 528.5,-354 534.5,-348 540.5,-348"/>
<text text-anchor="middle" x="594" y="-438.8" font-family="Times,serif" font-size="14.00">Route</text>
<polyline fill="none" stroke="black" points="528.5,-431 659.5,-431 "/>
<text text-anchor="start" x="536.5" y="-415.8" font-family="Times,serif" font-size="14.00">id :integer</text>
<text text-anchor="start" x="536.5" y="-400.8" font-family="Times,serif" font-size="14.00">address_id :integer</text>
<text text-anchor="start" x="536.5" y="-385.8" font-family="Times,serif" font-size="14.00">created_at :datetime</text>
<text text-anchor="start" x="536.5" y="-370.8" font-family="Times,serif" font-size="14.00">updated_at :datetime</text>
<text text-anchor="start" x="536.5" y="-355.8" font-family="Times,serif" font-size="14.00">way :integer</text>
</g>
<!-- Startpoint -->
<g id="node9" class="node"><title>Startpoint</title>
<path fill="none" stroke="black" d="M689.5,-355.5C689.5,-355.5 796.5,-355.5 796.5,-355.5 802.5,-355.5 808.5,-361.5 808.5,-367.5 808.5,-367.5 808.5,-434.5 808.5,-434.5 808.5,-440.5 802.5,-446.5 796.5,-446.5 796.5,-446.5 689.5,-446.5 689.5,-446.5 683.5,-446.5 677.5,-440.5 677.5,-434.5 677.5,-434.5 677.5,-367.5 677.5,-367.5 677.5,-361.5 683.5,-355.5 689.5,-355.5"/>
<text text-anchor="middle" x="743" y="-431.3" font-family="Times,serif" font-size="14.00">Startpoint</text>
<polyline fill="none" stroke="black" points="677.5,-423.5 808.5,-423.5 "/>
<text text-anchor="start" x="685.5" y="-408.3" font-family="Times,serif" font-size="14.00">id :integer</text>
<text text-anchor="start" x="685.5" y="-393.3" font-family="Times,serif" font-size="14.00">address_id :integer</text>
<text text-anchor="start" x="685.5" y="-378.3" font-family="Times,serif" font-size="14.00">created_at :datetime</text>
<text text-anchor="start" x="685.5" y="-363.3" font-family="Times,serif" font-size="14.00">updated_at :datetime</text>
</g>
</g>
</svg>
